<!-- icon666.com - MILLIONS OF FREE VECTOR ICONS --><svg id="Layer_1" enable-background="new 0 0 32 32" viewBox="0 0 32 32" xmlns="http://www.w3.org/2000/svg"><path d="m15.47 30.53c.146.146.338.22.53.22s.384-.073.53-.22l11.505-11.505c.214-.214.279-.537.163-.817s-.39-.463-.693-.463h-5.428v-15.745c0-.414-.336-.75-.75-.75h-10.654c-.414 0-.75.336-.75.75v15.745h-5.428c-.303 0-.577.183-.693.463s-.052.603.163.817zm-4.797-11.285c.414 0 .75-.336.75-.75v-15.745h9.154v15.745c0 .414.336.75.75.75h4.368l-9.695 9.694-9.695-9.695h4.368z"></path></svg>